<?xml version="1.0" encoding="utf-8"?>
<!-- Uploaded to: SVG Repo, www.svgrepo.com, Generator: SVG Repo Mixer Tools -->
<svg width="800px" height="800px" viewBox="0 0 1024 1024" class="icon"  version="1.1" xmlns="http://www.w3.org/2000/svg"><path d="M597.333333 981.333333h-170.666666c-117.824 0-213.333333-95.509333-213.333334-213.333333V256c0-117.824 95.509333-213.333333 213.333334-213.333333h170.666666c117.824 0 213.333333 95.509333 213.333334 213.333333v512c0 117.824-95.509333 213.333333-213.333334 213.333333z" fill="#444444" /><path d="M597.333333 1002.666667h-170.666666c-129.386667 0-234.666667-105.28-234.666667-234.666667V256C192 126.613333 297.28 21.333333 426.666667 21.333333h170.666666c129.386667 0 234.666667 105.28 234.666667 234.666667v512c0 129.386667-105.28 234.666667-234.666667 234.666667zM426.666667 64c-105.877333 0-192 86.144-192 192v512c0 105.856 86.122667 192 192 192h170.666666c105.877333 0 192-86.144 192-192V256c0-105.856-86.122667-192-192-192h-170.666666z" fill="#444444" /><path d="M490.666667 64h-64a192 192 0 0 0-192 192v64a192 192 0 0 0 192 192h64V64zM533.333333 64h64a192 192 0 0 1 192 192v64a192 192 0 0 1-192 192h-64V64z" fill="#606060" /><path d="M512 362.666667a42.666667 42.666667 0 0 1-42.666667-42.666667v-64a42.666667 42.666667 0 1 1 85.333334 0v64a42.666667 42.666667 0 0 1-42.666667 42.666667z" fill="#72C472" /></svg>